Coordinates
version=1
nRows=21
nColumns=12
inDegrees=yes

Units are S.I. units (second, meters, Newtons, ...)
Angles are in degrees

endheader
time	SC_y	SC_z	SC_x	AC_y	AC_z	AC_x	GH_y	GH_z	GH_yy	EL_x	PS_y
       0.0              -58.73          19.69          26.35          67.24         -9.305          3.446         -110.4          9.699          126.4          32.09          100.8
  0.009097              -58.73          19.69          26.36          67.24         -9.305          3.444         -110.4          9.698          126.4           32.1          100.8
   0.01819              -58.73          19.69          26.36          67.24         -9.305          3.442         -110.4          9.696          126.4          32.12          100.8
   0.02729              -58.72          19.68          26.37          67.24         -9.305           3.44         -110.4          9.695          126.4          32.13          100.8
   0.03639              -58.72          19.68          26.38          67.24         -9.306          3.437         -110.4          9.693          126.3          32.15          100.9
   0.04549              -58.71          19.68          26.39          67.24         -9.306          3.435         -110.3          9.691          126.3          32.17          100.9
   0.05458              -58.71          19.67           26.4          67.24         -9.306          3.432         -110.3          9.689          126.3          32.18          100.9
   0.06368               -58.7          19.67          26.41          67.24         -9.306          3.429         -110.3          9.687          126.3           32.2          100.9
   0.07278              -58.69          19.67          26.42          67.24         -9.306          3.426         -110.3          9.684          126.2          32.22          100.9
   0.08187              -58.69          19.66          26.43          67.24         -9.306          3.423         -110.2          9.682          126.2          32.25          100.9
   0.09097              -58.68          19.66          26.45          67.24         -9.306          3.419         -110.2          9.679          126.2          32.27          100.9
    0.1001              -58.67          19.65          26.46          67.24         -9.306          3.416         -110.2          9.676          126.1           32.3          100.9
    0.1092              -58.66          19.65          26.48          67.24         -9.306          3.412         -110.1          9.673          126.1          32.32          101.0
    0.1183              -58.66          19.64          26.49          67.24         -9.306          3.407         -110.1          9.669          126.0          32.35          101.0
    0.1274              -58.65          19.63          26.51          67.24         -9.306          3.402         -110.1          9.666          126.0          32.39          101.0
    0.1365              -58.64          19.63          26.53          67.24         -9.306          3.397         -110.0          9.662          125.9          32.42          101.0
    0.1456              -58.62          19.62          26.55          67.24         -9.307          3.392         -110.0          9.657          125.9          32.46          101.0
    0.1546              -58.61          19.61          26.57          67.24         -9.307          3.385         -109.9          9.653          125.8           32.5          101.1
    0.1637               -58.6           19.6           26.6          67.24         -9.307          3.379         -109.9          9.648          125.8          32.55          101.1
    0.1728              -58.58          19.59          26.63          67.24         -9.307          3.371         -109.8          9.642          125.7           32.6          101.1
    0.1819              -58.57          19.58          26.65          67.24         -9.307          3.363         -109.7          9.636          125.6          32.65          101.2
